<?xml version="1.0" encoding="utf-8"?>
<!-- Generator: Adobe Illustrator 18.1.0, SVG Export Plug-In . SVG Version: 6.00 Build 0)  -->
<svg version="1.1" id="Logo" xmlns="http://www.w3.org/2000/svg" xmlns:xlink="http://www.w3.org/1999/xlink" x="0px" y="0px"
	 viewBox="0 0 216.3 48.3" enable-background="new 0 0 216.3 48.3" xml:space="preserve">
<g>
	<path fill="none" d="M198.7,19.5H196v9.2h2.7c2.9,0,4.3-1.6,4.3-4.9C203,21,201.6,19.5,198.7,19.5z"/>
	<polygon fill="none" points="0,0 0,10.8 10.9,0 	"/>
	<polygon fill="none" points="0,48.3 10.7,48.3 0,37.5 	"/>
	<path fill="none" d="M10.9,0l22.3,22.5V12.2h1.5V24l0.2,0.2l-0.2,0.2v10.9h-1.5v-9.4L10.7,48.3h205.5V0H10.9z M50.2,30
		c-1.4,0-2.7-0.2-4-0.5v-1.4c1.2,0.4,2.5,0.7,4,0.7c2,0,3-0.7,3-2.2c0-1.2-0.7-1.9-2.2-1.9h-1.5c-2.4,0-3.7-1.1-3.7-3.2
		c0-2.2,1.6-3.3,4.7-3.3c1.4,0,2.6,0.2,3.8,0.5v1.4c-1.2-0.4-2.4-0.7-3.8-0.7c-2.1,0-3.2,0.7-3.2,2.1c0,1.2,0.7,1.9,2.2,1.9h1.5
		c2.5,0,3.7,1.1,3.7,3.2C54.7,28.9,53.2,30,50.2,30z M64.7,19.5h-3.7V30h-1.5V19.5h-3.7v-1.2h8.8V19.5z M74.2,30h-7.7V18.3h7.6v1.2
		H68v3.9h5.8v1.2H68v4.1h6.2V30z M82,30h-1.7l-5-11.6h1.6l4.3,10.1l4.2-10.1h1.6L82,30z M96.3,30h-7.7V18.3h7.6v1.2H90v3.9h5.8v1.2
		H90v4.1h6.2V30z M108.6,30h-1.5l-7.1-9.5V30h-1.4V18.3h1.5l7.1,9.4v-9.4h1.4V30z M123,30h-7.6V18.3h1.5v10.4h6.1V30z M133.6,30
		l-1.5-3.7h-3.9l0.4-1.2h2.9l-2.2-5.3L125.2,30h-1.6l4.9-11.6h1.7l5,11.6H133.6z M146.9,30h-1.5l-7.1-9.5V30h-1.4V18.3h1.5l7.1,9.4
		v-9.4h1.4V30z M158.4,20c-1-0.4-2-0.6-3.1-0.6c-3.2,0-4.8,1.5-4.8,4.5c0,3.2,1.6,4.8,4.7,4.8c0.5,0,1.1-0.1,1.7-0.2v-4h1.5v4.8
		c-0.9,0.4-2,0.5-3,0.5c-4.2,0-6.3-2-6.3-6.1c0-3.8,2-5.7,6.1-5.7c1.2,0,2.3,0.2,3.3,0.5V20z M168.5,19.5h-6.1v3.9h5.8v1.2h-5.8V30
		h-1.5V18.3h7.6V19.5z M175.8,30c-3.9,0-5.8-2-5.8-5.9c0-3.9,1.9-5.9,5.8-5.9c3.8,0,5.8,2,5.8,5.9C181.5,28.1,179.6,30,175.8,30z
		 M190.9,30l-3.7-5.2v-1c2.2-0.4,3.3-1.2,3.3-2.6c0-1.1-0.6-1.6-1.9-1.6h-3.3V30h-1.5V18.3h5c2.2,0,3.3,0.9,3.3,2.8
		c0,1.5-1.1,2.6-3.2,3.4l4,5.5H190.9z M198.7,30h-4.2V18.3h4.2c3.9,0,5.8,1.8,5.8,5.5C204.5,27.9,202.6,30,198.7,30z"/>
	<path fill="none" d="M175.8,19.4c-2.8,0-4.3,1.6-4.3,4.7c0,3.1,1.4,4.7,4.3,4.7c2.8,0,4.2-1.6,4.2-4.7
		C179.9,21,178.5,19.4,175.8,19.4z"/>
	<polygon fill="#FFFFFF" points="33.2,22.5 10.9,0 0,10.8 0,34.4 8.2,25.4 9.8,27.4 5.3,32.6 16.2,32.6 0.2,13.3 1.3,12.2 
		20.6,12.2 21.7,13.3 13.8,22.4 12,20.3 16.6,15 5.3,15 21.9,34.4 20.8,35.5 0.9,35.4 0,34.4 0,37.5 10.7,48.3 33.2,25.9 	"/>
	<polygon fill="#FFFFFF" points="34.9,24.2 34.7,24 34.7,24.4 	"/>
	<polygon fill="#1A1A1A" points="20.8,35.5 21.9,34.4 5.3,15 16.6,15 12,20.3 13.8,22.4 21.7,13.3 20.6,12.2 1.3,12.2 0.2,13.3 
		16.2,32.6 5.3,32.6 9.8,27.4 8.2,25.4 0,34.4 0.9,35.4 	"/>
	<polygon fill="#00A0DD" points="33.2,35.3 34.7,35.3 34.7,24.4 34.7,24 34.7,12.2 33.2,12.2 33.2,22.5 33.2,25.9 	"/>
	<path fill="#1A1A1A" d="M50.9,23.4h-1.5c-1.4,0-2.2-0.6-2.2-1.9c0-1.4,1.1-2.1,3.2-2.1c1.4,0,2.6,0.2,3.8,0.7v-1.4
		c-1.2-0.3-2.4-0.5-3.8-0.5c-3.1,0-4.7,1.1-4.7,3.3c0,2.1,1.2,3.2,3.7,3.2h1.5c1.5,0,2.2,0.6,2.2,1.9c0,1.5-1,2.2-3,2.2
		c-1.4,0-2.7-0.2-4-0.7v1.4c1.2,0.3,2.5,0.5,4,0.5c3,0,4.5-1.1,4.5-3.4C54.7,24.5,53.4,23.4,50.9,23.4z"/>
	<polygon fill="#1A1A1A" points="55.9,19.5 59.5,19.5 59.5,30 61.1,30 61.1,19.5 64.7,19.5 64.7,18.3 55.9,18.3 	"/>
	<polygon fill="#1A1A1A" points="68,24.7 73.8,24.7 73.8,23.4 68,23.4 68,19.5 74.1,19.5 74.1,18.3 66.5,18.3 66.5,30 74.2,30 
		74.2,28.7 68,28.7 	"/>
	<polygon fill="#1A1A1A" points="81.2,28.4 76.9,18.3 75.3,18.3 80.3,30 82,30 86.9,18.3 85.4,18.3 	"/>
	<polygon fill="#1A1A1A" points="90,24.7 95.8,24.7 95.8,23.4 90,23.4 90,19.5 96.1,19.5 96.1,18.3 88.5,18.3 88.5,30 96.3,30 
		96.3,28.7 90,28.7 	"/>
	<polygon fill="#1A1A1A" points="107.2,27.7 100,18.3 98.5,18.3 98.5,30 100,30 100,20.5 107.1,30 108.6,30 108.6,18.3 107.2,18.3 	
		"/>
	<polygon fill="#1A1A1A" points="116.9,18.3 115.4,18.3 115.4,30 123,30 123,28.7 116.9,28.7 	"/>
	<polygon fill="#1A1A1A" points="128.6,18.3 123.6,30 125.2,30 129.4,19.8 131.5,25.1 128.6,25.1 128.2,26.3 132,26.3 133.6,30 
		135.2,30 130.3,18.3 	"/>
	<polygon fill="#1A1A1A" points="145.4,27.7 138.3,18.3 136.8,18.3 136.8,30 138.2,30 138.2,20.5 145.4,30 146.9,30 146.9,18.3 
		145.4,18.3 	"/>
	<path fill="#1A1A1A" d="M149.1,24c0,4,2.1,6.1,6.3,6.1c1.1,0,2.1-0.2,3-0.5v-4.8h-1.5v4c-0.6,0.1-1.2,0.2-1.7,0.2
		c-3.1,0-4.7-1.6-4.7-4.8c0-3,1.6-4.5,4.8-4.5c1.1,0,2.1,0.2,3.1,0.6v-1.3c-1-0.3-2.1-0.5-3.3-0.5C151.1,18.2,149.1,20.1,149.1,24z"
		/>
	<polygon fill="#1A1A1A" points="160.9,30 162.4,30 162.4,24.7 168.2,24.7 168.2,23.4 162.4,23.4 162.4,19.5 168.5,19.5 168.5,18.3 
		160.9,18.3 	"/>
	<path fill="#1A1A1A" d="M175.8,18.2c-3.9,0-5.8,2-5.8,5.9c0,3.9,1.9,5.9,5.8,5.9c3.8,0,5.8-2,5.8-5.9
		C181.5,20.2,179.6,18.2,175.8,18.2z M175.8,28.8c-2.8,0-4.3-1.6-4.3-4.7c0-3.1,1.4-4.7,4.3-4.7c2.8,0,4.2,1.6,4.2,4.7
		C179.9,27.2,178.5,28.8,175.8,28.8z"/>
	<path fill="#1A1A1A" d="M192.2,21.1c0-1.9-1.1-2.8-3.3-2.8h-5V30h1.5V19.6h3.3c1.2,0,1.9,0.5,1.9,1.6c0,1.4-1.1,2.2-3.3,2.6v1
		l3.7,5.2h2l-4-5.5C191.1,23.7,192.2,22.6,192.2,21.1z"/>
	<path fill="#1A1A1A" d="M198.7,18.3h-4.2V30h4.2c3.9,0,5.8-2,5.8-6.1C204.5,20.1,202.6,18.3,198.7,18.3z M198.7,28.7H196v-9.2h2.7
		c2.9,0,4.3,1.4,4.3,4.3C203,27.1,201.6,28.7,198.7,28.7z"/>
</g>
</svg>
